G04 (created by PCBNEW-RS274X (2012-apr-16-27)-stable) date Thu 27 Feb 2014 00:38:27 NZDT*
G01*
G70*
G90*
%MOIN*%
G04 Gerber Fmt 3.4, Leading zero omitted, Abs format*
%FSLAX34Y34*%
G04 APERTURE LIST*
%ADD10C,0.006000*%
%ADD11C,0.012000*%
%ADD12C,0.015000*%
%ADD13C,0.005000*%
%ADD14C,0.009600*%
%ADD15C,0.007800*%
%ADD16C,0.015700*%
%ADD17C,0.010700*%
%ADD18R,0.055000X0.075000*%
%ADD19R,0.075000X0.075000*%
%ADD20C,0.075000*%
%ADD21R,0.059300X0.142000*%
%ADD22O,0.051400X0.029800*%
%ADD23R,0.059300X0.113700*%
%ADD24C,0.055000*%
%ADD25C,0.090000*%
G04 APERTURE END LIST*
G54D10*
X04000Y-04000D02*
X113000Y-04000D01*
X113000Y-78670D01*
X04000Y-78670D01*
X04000Y-04000D01*
X04700Y-04700D02*
X112300Y-04700D01*
X112300Y-77970D01*
X04700Y-77970D01*
X04700Y-04700D01*
X25800Y-04000D02*
X25800Y-04700D01*
X15043Y-04552D02*
X14757Y-04552D01*
X14900Y-04552D02*
X14900Y-04052D01*
X14852Y-04124D01*
X14805Y-04171D01*
X14757Y-04195D01*
X25800Y-78670D02*
X25800Y-77970D01*
X15043Y-78522D02*
X14757Y-78522D01*
X14900Y-78522D02*
X14900Y-78022D01*
X14852Y-78094D01*
X14805Y-78141D01*
X14757Y-78165D01*
X47600Y-04000D02*
X47600Y-04700D01*
X36557Y-04100D02*
X36581Y-04076D01*
X36629Y-04052D01*
X36748Y-04052D01*
X36795Y-04076D01*
X36819Y-04100D01*
X36843Y-04148D01*
X36843Y-04195D01*
X36819Y-04267D01*
X36533Y-04552D01*
X36843Y-04552D01*
X47600Y-78670D02*
X47600Y-77970D01*
X36557Y-78070D02*
X36581Y-78046D01*
X36629Y-78022D01*
X36748Y-78022D01*
X36795Y-78046D01*
X36819Y-78070D01*
X36843Y-78118D01*
X36843Y-78165D01*
X36819Y-78237D01*
X36533Y-78522D01*
X36843Y-78522D01*
X69400Y-04000D02*
X69400Y-04700D01*
X58333Y-04052D02*
X58643Y-04052D01*
X58476Y-04243D01*
X58548Y-04243D01*
X58595Y-04267D01*
X58619Y-04290D01*
X58643Y-04338D01*
X58643Y-04457D01*
X58619Y-04505D01*
X58595Y-04529D01*
X58548Y-04552D01*
X58405Y-04552D01*
X58357Y-04529D01*
X58333Y-04505D01*
X69400Y-78670D02*
X69400Y-77970D01*
X58333Y-78022D02*
X58643Y-78022D01*
X58476Y-78213D01*
X58548Y-78213D01*
X58595Y-78237D01*
X58619Y-78260D01*
X58643Y-78308D01*
X58643Y-78427D01*
X58619Y-78475D01*
X58595Y-78499D01*
X58548Y-78522D01*
X58405Y-78522D01*
X58357Y-78499D01*
X58333Y-78475D01*
X91200Y-04000D02*
X91200Y-04700D01*
X80395Y-04219D02*
X80395Y-04552D01*
X80276Y-04029D02*
X80157Y-04386D01*
X80467Y-04386D01*
X91200Y-78670D02*
X91200Y-77970D01*
X80395Y-78189D02*
X80395Y-78522D01*
X80276Y-77999D02*
X80157Y-78356D01*
X80467Y-78356D01*
X102219Y-04052D02*
X101981Y-04052D01*
X101957Y-04290D01*
X101981Y-04267D01*
X102029Y-04243D01*
X102148Y-04243D01*
X102195Y-04267D01*
X102219Y-04290D01*
X102243Y-04338D01*
X102243Y-04457D01*
X102219Y-04505D01*
X102195Y-04529D01*
X102148Y-04552D01*
X102029Y-04552D01*
X101981Y-04529D01*
X101957Y-04505D01*
X102219Y-78022D02*
X101981Y-78022D01*
X101957Y-78260D01*
X101981Y-78237D01*
X102029Y-78213D01*
X102148Y-78213D01*
X102195Y-78237D01*
X102219Y-78260D01*
X102243Y-78308D01*
X102243Y-78427D01*
X102219Y-78475D01*
X102195Y-78499D01*
X102148Y-78522D01*
X102029Y-78522D01*
X101981Y-78499D01*
X101957Y-78475D01*
X04000Y-28890D02*
X04700Y-28890D01*
X04231Y-16510D02*
X04469Y-16510D01*
X04184Y-16652D02*
X04350Y-16152D01*
X04517Y-16652D01*
X113000Y-28890D02*
X112300Y-28890D01*
X112531Y-16510D02*
X112769Y-16510D01*
X112484Y-16652D02*
X112650Y-16152D01*
X112817Y-16652D01*
X04000Y-53780D02*
X04700Y-53780D01*
X04386Y-41280D02*
X04457Y-41304D01*
X04481Y-41328D01*
X04505Y-41376D01*
X04505Y-41447D01*
X04481Y-41495D01*
X04457Y-41519D01*
X04410Y-41542D01*
X04219Y-41542D01*
X04219Y-41042D01*
X04386Y-41042D01*
X04433Y-41066D01*
X04457Y-41090D01*
X04481Y-41138D01*
X04481Y-41185D01*
X04457Y-41233D01*
X04433Y-41257D01*
X04386Y-41280D01*
X04219Y-41280D01*
X113000Y-53780D02*
X112300Y-53780D01*
X112686Y-41280D02*
X112757Y-41304D01*
X112781Y-41328D01*
X112805Y-41376D01*
X112805Y-41447D01*
X112781Y-41495D01*
X112757Y-41519D01*
X112710Y-41542D01*
X112519Y-41542D01*
X112519Y-41042D01*
X112686Y-41042D01*
X112733Y-41066D01*
X112757Y-41090D01*
X112781Y-41138D01*
X112781Y-41185D01*
X112757Y-41233D01*
X112733Y-41257D01*
X112686Y-41280D01*
X112519Y-41280D01*
X04505Y-66385D02*
X04481Y-66409D01*
X04410Y-66432D01*
X04362Y-66432D01*
X04290Y-66409D01*
X04243Y-66361D01*
X04219Y-66313D01*
X04195Y-66218D01*
X04195Y-66147D01*
X04219Y-66051D01*
X04243Y-66004D01*
X04290Y-65956D01*
X04362Y-65932D01*
X04410Y-65932D01*
X04481Y-65956D01*
X04505Y-65980D01*
X112805Y-66385D02*
X112781Y-66409D01*
X112710Y-66432D01*
X112662Y-66432D01*
X112590Y-66409D01*
X112543Y-66361D01*
X112519Y-66313D01*
X112495Y-66218D01*
X112495Y-66147D01*
X112519Y-66051D01*
X112543Y-66004D01*
X112590Y-65956D01*
X112662Y-65932D01*
X112710Y-65932D01*
X112781Y-65956D01*
X112805Y-65980D01*
G54D11*
X79443Y-76413D02*
X79443Y-75813D01*
X79586Y-75813D01*
X79671Y-75841D01*
X79729Y-75899D01*
X79757Y-75956D01*
X79786Y-76070D01*
X79786Y-76156D01*
X79757Y-76270D01*
X79729Y-76327D01*
X79671Y-76384D01*
X79586Y-76413D01*
X79443Y-76413D01*
X80300Y-76413D02*
X80300Y-76099D01*
X80271Y-76041D01*
X80214Y-76013D01*
X80100Y-76013D01*
X80043Y-76041D01*
X80300Y-76384D02*
X80243Y-76413D01*
X80100Y-76413D01*
X80043Y-76384D01*
X80014Y-76327D01*
X80014Y-76270D01*
X80043Y-76213D01*
X80100Y-76184D01*
X80243Y-76184D01*
X80300Y-76156D01*
X80500Y-76013D02*
X80729Y-76013D01*
X80586Y-75813D02*
X80586Y-76327D01*
X80614Y-76384D01*
X80672Y-76413D01*
X80729Y-76413D01*
X81157Y-76384D02*
X81100Y-76413D01*
X80986Y-76413D01*
X80929Y-76384D01*
X80900Y-76327D01*
X80900Y-76099D01*
X80929Y-76041D01*
X80986Y-76013D01*
X81100Y-76013D01*
X81157Y-76041D01*
X81186Y-76099D01*
X81186Y-76156D01*
X80900Y-76213D01*
X81443Y-76356D02*
X81471Y-76384D01*
X81443Y-76413D01*
X81414Y-76384D01*
X81443Y-76356D01*
X81443Y-76413D01*
X81443Y-76041D02*
X81471Y-76070D01*
X81443Y-76099D01*
X81414Y-76070D01*
X81443Y-76041D01*
X81443Y-76099D01*
X82157Y-75870D02*
X82186Y-75841D01*
X82243Y-75813D01*
X82386Y-75813D01*
X82443Y-75841D01*
X82472Y-75870D01*
X82500Y-75927D01*
X82500Y-75984D01*
X82472Y-76070D01*
X82129Y-76413D01*
X82500Y-76413D01*
X83014Y-75813D02*
X82900Y-75813D01*
X82843Y-75841D01*
X82814Y-75870D01*
X82757Y-75956D01*
X82728Y-76070D01*
X82728Y-76299D01*
X82757Y-76356D01*
X82785Y-76384D01*
X82843Y-76413D01*
X82957Y-76413D01*
X83014Y-76384D01*
X83043Y-76356D01*
X83071Y-76299D01*
X83071Y-76156D01*
X83043Y-76099D01*
X83014Y-76070D01*
X82957Y-76041D01*
X82843Y-76041D01*
X82785Y-76070D01*
X82757Y-76099D01*
X82728Y-76156D01*
X83699Y-76013D02*
X83928Y-76013D01*
X83785Y-76413D02*
X83785Y-75899D01*
X83813Y-75841D01*
X83871Y-75813D01*
X83928Y-75813D01*
X84356Y-76384D02*
X84299Y-76413D01*
X84185Y-76413D01*
X84128Y-76384D01*
X84099Y-76327D01*
X84099Y-76099D01*
X84128Y-76041D01*
X84185Y-76013D01*
X84299Y-76013D01*
X84356Y-76041D01*
X84385Y-76099D01*
X84385Y-76156D01*
X84099Y-76213D01*
X84642Y-76413D02*
X84642Y-75813D01*
X84642Y-76041D02*
X84699Y-76013D01*
X84813Y-76013D01*
X84870Y-76041D01*
X84899Y-76070D01*
X84928Y-76127D01*
X84928Y-76299D01*
X84899Y-76356D01*
X84870Y-76384D01*
X84813Y-76413D01*
X84699Y-76413D01*
X84642Y-76384D01*
X85613Y-75870D02*
X85642Y-75841D01*
X85699Y-75813D01*
X85842Y-75813D01*
X85899Y-75841D01*
X85928Y-75870D01*
X85956Y-75927D01*
X85956Y-75984D01*
X85928Y-76070D01*
X85585Y-76413D01*
X85956Y-76413D01*
X86327Y-75813D02*
X86384Y-75813D01*
X86441Y-75841D01*
X86470Y-75870D01*
X86499Y-75927D01*
X86527Y-76041D01*
X86527Y-76184D01*
X86499Y-76299D01*
X86470Y-76356D01*
X86441Y-76384D01*
X86384Y-76413D01*
X86327Y-76413D01*
X86270Y-76384D01*
X86241Y-76356D01*
X86213Y-76299D01*
X86184Y-76184D01*
X86184Y-76041D01*
X86213Y-75927D01*
X86241Y-75870D01*
X86270Y-75841D01*
X86327Y-75813D01*
X87098Y-76413D02*
X86755Y-76413D01*
X86927Y-76413D02*
X86927Y-75813D01*
X86870Y-75899D01*
X86812Y-75956D01*
X86755Y-75984D01*
X87612Y-76013D02*
X87612Y-76413D01*
X87469Y-75784D02*
X87326Y-76213D01*
X87698Y-76213D01*
G54D10*
X71043Y-77613D02*
X71043Y-77013D01*
X71386Y-77613D02*
X71129Y-77270D01*
X71386Y-77013D02*
X71043Y-77356D01*
X71643Y-77613D02*
X71643Y-77213D01*
X71643Y-77013D02*
X71614Y-77041D01*
X71643Y-77070D01*
X71671Y-77041D01*
X71643Y-77013D01*
X71643Y-77070D01*
X72272Y-77556D02*
X72243Y-77584D01*
X72157Y-77613D01*
X72100Y-77613D01*
X72015Y-77584D01*
X71957Y-77527D01*
X71929Y-77470D01*
X71900Y-77356D01*
X71900Y-77270D01*
X71929Y-77156D01*
X71957Y-77099D01*
X72015Y-77041D01*
X72100Y-77013D01*
X72157Y-77013D01*
X72243Y-77041D01*
X72272Y-77070D01*
X72786Y-77613D02*
X72786Y-77299D01*
X72757Y-77241D01*
X72700Y-77213D01*
X72586Y-77213D01*
X72529Y-77241D01*
X72786Y-77584D02*
X72729Y-77613D01*
X72586Y-77613D01*
X72529Y-77584D01*
X72500Y-77527D01*
X72500Y-77470D01*
X72529Y-77413D01*
X72586Y-77384D01*
X72729Y-77384D01*
X72786Y-77356D01*
X73329Y-77613D02*
X73329Y-77013D01*
X73329Y-77584D02*
X73272Y-77613D01*
X73158Y-77613D01*
X73100Y-77584D01*
X73072Y-77556D01*
X73043Y-77499D01*
X73043Y-77327D01*
X73072Y-77270D01*
X73100Y-77241D01*
X73158Y-77213D01*
X73272Y-77213D01*
X73329Y-77241D01*
X74072Y-77299D02*
X74272Y-77299D01*
X74358Y-77613D02*
X74072Y-77613D01*
X74072Y-77013D01*
X74358Y-77013D01*
X74615Y-77556D02*
X74643Y-77584D01*
X74615Y-77613D01*
X74586Y-77584D01*
X74615Y-77556D01*
X74615Y-77613D01*
X74901Y-77613D02*
X74901Y-77013D01*
X75044Y-77013D01*
X75129Y-77041D01*
X75187Y-77099D01*
X75215Y-77156D01*
X75244Y-77270D01*
X75244Y-77356D01*
X75215Y-77470D01*
X75187Y-77527D01*
X75129Y-77584D01*
X75044Y-77613D01*
X74901Y-77613D01*
X75501Y-77556D02*
X75529Y-77584D01*
X75501Y-77613D01*
X75472Y-77584D01*
X75501Y-77556D01*
X75501Y-77613D01*
X75758Y-77441D02*
X76044Y-77441D01*
X75701Y-77613D02*
X75901Y-77013D01*
X76101Y-77613D01*
X76301Y-77556D02*
X76329Y-77584D01*
X76301Y-77613D01*
X76272Y-77584D01*
X76301Y-77556D01*
X76301Y-77613D01*
G54D11*
X104586Y-76413D02*
X104386Y-76127D01*
X104243Y-76413D02*
X104243Y-75813D01*
X104471Y-75813D01*
X104529Y-75841D01*
X104557Y-75870D01*
X104586Y-75927D01*
X104586Y-76013D01*
X104557Y-76070D01*
X104529Y-76099D01*
X104471Y-76127D01*
X104243Y-76127D01*
X105071Y-76384D02*
X105014Y-76413D01*
X104900Y-76413D01*
X104843Y-76384D01*
X104814Y-76327D01*
X104814Y-76099D01*
X104843Y-76041D01*
X104900Y-76013D01*
X105014Y-76013D01*
X105071Y-76041D01*
X105100Y-76099D01*
X105100Y-76156D01*
X104814Y-76213D01*
X105300Y-76013D02*
X105443Y-76413D01*
X105585Y-76013D01*
X105814Y-76356D02*
X105842Y-76384D01*
X105814Y-76413D01*
X105785Y-76384D01*
X105814Y-76356D01*
X105814Y-76413D01*
X105814Y-76041D02*
X105842Y-76070D01*
X105814Y-76099D01*
X105785Y-76070D01*
X105814Y-76041D01*
X105814Y-76099D01*
G54D10*
X71014Y-76384D02*
X71100Y-76413D01*
X71243Y-76413D01*
X71300Y-76384D01*
X71329Y-76356D01*
X71357Y-76299D01*
X71357Y-76241D01*
X71329Y-76184D01*
X71300Y-76156D01*
X71243Y-76127D01*
X71129Y-76099D01*
X71071Y-76070D01*
X71043Y-76041D01*
X71014Y-75984D01*
X71014Y-75927D01*
X71043Y-75870D01*
X71071Y-75841D01*
X71129Y-75813D01*
X71271Y-75813D01*
X71357Y-75841D01*
X71614Y-76413D02*
X71614Y-76013D01*
X71614Y-75813D02*
X71585Y-75841D01*
X71614Y-75870D01*
X71642Y-75841D01*
X71614Y-75813D01*
X71614Y-75870D01*
X71843Y-76013D02*
X72157Y-76013D01*
X71843Y-76413D01*
X72157Y-76413D01*
X72614Y-76384D02*
X72557Y-76413D01*
X72443Y-76413D01*
X72386Y-76384D01*
X72357Y-76327D01*
X72357Y-76099D01*
X72386Y-76041D01*
X72443Y-76013D01*
X72557Y-76013D01*
X72614Y-76041D01*
X72643Y-76099D01*
X72643Y-76156D01*
X72357Y-76213D01*
X72900Y-76356D02*
X72928Y-76384D01*
X72900Y-76413D01*
X72871Y-76384D01*
X72900Y-76356D01*
X72900Y-76413D01*
X72900Y-76041D02*
X72928Y-76070D01*
X72900Y-76099D01*
X72871Y-76070D01*
X72900Y-76041D01*
X72900Y-76099D01*
X73614Y-76241D02*
X73900Y-76241D01*
X73557Y-76413D02*
X73757Y-75813D01*
X73957Y-76413D01*
X74414Y-76013D02*
X74414Y-76413D01*
X74271Y-75784D02*
X74128Y-76213D01*
X74500Y-76213D01*
X104243Y-77613D02*
X104243Y-77013D01*
X104786Y-77613D02*
X104786Y-77013D01*
X104786Y-77584D02*
X104729Y-77613D01*
X104615Y-77613D01*
X104557Y-77584D01*
X104529Y-77556D01*
X104500Y-77499D01*
X104500Y-77327D01*
X104529Y-77270D01*
X104557Y-77241D01*
X104615Y-77213D01*
X104729Y-77213D01*
X104786Y-77241D01*
X105072Y-77556D02*
X105100Y-77584D01*
X105072Y-77613D01*
X105043Y-77584D01*
X105072Y-77556D01*
X105072Y-77613D01*
X105072Y-77241D02*
X105100Y-77270D01*
X105072Y-77299D01*
X105043Y-77270D01*
X105072Y-77241D01*
X105072Y-77299D01*
X106129Y-77613D02*
X105786Y-77613D01*
X105958Y-77613D02*
X105958Y-77013D01*
X105901Y-77099D01*
X105843Y-77156D01*
X105786Y-77184D01*
X106814Y-76984D02*
X106300Y-77756D01*
X107329Y-77613D02*
X106986Y-77613D01*
X107158Y-77613D02*
X107158Y-77013D01*
X107101Y-77099D01*
X107043Y-77156D01*
X106986Y-77184D01*
G54D11*
X70957Y-74613D02*
X71300Y-74613D01*
X71129Y-75213D02*
X71129Y-74613D01*
X71500Y-75213D02*
X71500Y-74813D01*
X71500Y-74613D02*
X71471Y-74641D01*
X71500Y-74670D01*
X71528Y-74641D01*
X71500Y-74613D01*
X71500Y-74670D01*
X71700Y-74813D02*
X71929Y-74813D01*
X71786Y-74613D02*
X71786Y-75127D01*
X71814Y-75184D01*
X71872Y-75213D01*
X71929Y-75213D01*
X72215Y-75213D02*
X72157Y-75184D01*
X72129Y-75127D01*
X72129Y-74613D01*
X72671Y-75184D02*
X72614Y-75213D01*
X72500Y-75213D01*
X72443Y-75184D01*
X72414Y-75127D01*
X72414Y-74899D01*
X72443Y-74841D01*
X72500Y-74813D01*
X72614Y-74813D01*
X72671Y-74841D01*
X72700Y-74899D01*
X72700Y-74956D01*
X72414Y-75013D01*
X72957Y-75156D02*
X72985Y-75184D01*
X72957Y-75213D01*
X72928Y-75184D01*
X72957Y-75156D01*
X72957Y-75213D01*
X72957Y-74841D02*
X72985Y-74870D01*
X72957Y-74899D01*
X72928Y-74870D01*
X72957Y-74841D01*
X72957Y-74899D01*
G54D10*
X71243Y-72499D02*
X71043Y-72499D01*
X71043Y-72813D02*
X71043Y-72213D01*
X71329Y-72213D01*
X71557Y-72813D02*
X71557Y-72413D01*
X71557Y-72213D02*
X71528Y-72241D01*
X71557Y-72270D01*
X71585Y-72241D01*
X71557Y-72213D01*
X71557Y-72270D01*
X71929Y-72813D02*
X71871Y-72784D01*
X71843Y-72727D01*
X71843Y-72213D01*
X72385Y-72784D02*
X72328Y-72813D01*
X72214Y-72813D01*
X72157Y-72784D01*
X72128Y-72727D01*
X72128Y-72499D01*
X72157Y-72441D01*
X72214Y-72413D01*
X72328Y-72413D01*
X72385Y-72441D01*
X72414Y-72499D01*
X72414Y-72556D01*
X72128Y-72613D01*
X72671Y-72756D02*
X72699Y-72784D01*
X72671Y-72813D01*
X72642Y-72784D01*
X72671Y-72756D01*
X72671Y-72813D01*
X72671Y-72441D02*
X72699Y-72470D01*
X72671Y-72499D01*
X72642Y-72470D01*
X72671Y-72441D01*
X72671Y-72499D01*
X73414Y-72413D02*
X73414Y-73013D01*
X73414Y-72441D02*
X73471Y-72413D01*
X73585Y-72413D01*
X73642Y-72441D01*
X73671Y-72470D01*
X73700Y-72527D01*
X73700Y-72699D01*
X73671Y-72756D01*
X73642Y-72784D01*
X73585Y-72813D01*
X73471Y-72813D01*
X73414Y-72784D01*
X73957Y-72813D02*
X73957Y-72413D01*
X73957Y-72527D02*
X73985Y-72470D01*
X74014Y-72441D01*
X74071Y-72413D01*
X74128Y-72413D01*
X74556Y-72784D02*
X74499Y-72813D01*
X74385Y-72813D01*
X74328Y-72784D01*
X74299Y-72727D01*
X74299Y-72499D01*
X74328Y-72441D01*
X74385Y-72413D01*
X74499Y-72413D01*
X74556Y-72441D01*
X74585Y-72499D01*
X74585Y-72556D01*
X74299Y-72613D01*
X74813Y-72784D02*
X74870Y-72813D01*
X74985Y-72813D01*
X75042Y-72784D01*
X75070Y-72727D01*
X75070Y-72699D01*
X75042Y-72641D01*
X74985Y-72613D01*
X74899Y-72613D01*
X74842Y-72584D01*
X74813Y-72527D01*
X74813Y-72499D01*
X74842Y-72441D01*
X74899Y-72413D01*
X74985Y-72413D01*
X75042Y-72441D01*
X75299Y-72784D02*
X75356Y-72813D01*
X75471Y-72813D01*
X75528Y-72784D01*
X75556Y-72727D01*
X75556Y-72699D01*
X75528Y-72641D01*
X75471Y-72613D01*
X75385Y-72613D01*
X75328Y-72584D01*
X75299Y-72527D01*
X75299Y-72499D01*
X75328Y-72441D01*
X75385Y-72413D01*
X75471Y-72413D01*
X75528Y-72441D01*
X76071Y-72413D02*
X76071Y-72813D01*
X75814Y-72413D02*
X75814Y-72727D01*
X75842Y-72784D01*
X75900Y-72813D01*
X75985Y-72813D01*
X76042Y-72784D01*
X76071Y-72756D01*
X76357Y-72813D02*
X76357Y-72413D01*
X76357Y-72527D02*
X76385Y-72470D01*
X76414Y-72441D01*
X76471Y-72413D01*
X76528Y-72413D01*
X76956Y-72784D02*
X76899Y-72813D01*
X76785Y-72813D01*
X76728Y-72784D01*
X76699Y-72727D01*
X76699Y-72499D01*
X76728Y-72441D01*
X76785Y-72413D01*
X76899Y-72413D01*
X76956Y-72441D01*
X76985Y-72499D01*
X76985Y-72556D01*
X76699Y-72613D01*
X77242Y-72584D02*
X77699Y-72584D01*
X77956Y-72784D02*
X78013Y-72813D01*
X78128Y-72813D01*
X78185Y-72784D01*
X78213Y-72727D01*
X78213Y-72699D01*
X78185Y-72641D01*
X78128Y-72613D01*
X78042Y-72613D01*
X77985Y-72584D01*
X77956Y-72527D01*
X77956Y-72499D01*
X77985Y-72441D01*
X78042Y-72413D01*
X78128Y-72413D01*
X78185Y-72441D01*
X78699Y-72784D02*
X78642Y-72813D01*
X78528Y-72813D01*
X78471Y-72784D01*
X78442Y-72727D01*
X78442Y-72499D01*
X78471Y-72441D01*
X78528Y-72413D01*
X78642Y-72413D01*
X78699Y-72441D01*
X78728Y-72499D01*
X78728Y-72556D01*
X78442Y-72613D01*
X78985Y-72413D02*
X78985Y-72813D01*
X78985Y-72470D02*
X79013Y-72441D01*
X79071Y-72413D01*
X79156Y-72413D01*
X79213Y-72441D01*
X79242Y-72499D01*
X79242Y-72813D01*
X79499Y-72784D02*
X79556Y-72813D01*
X79671Y-72813D01*
X79728Y-72784D01*
X79756Y-72727D01*
X79756Y-72699D01*
X79728Y-72641D01*
X79671Y-72613D01*
X79585Y-72613D01*
X79528Y-72584D01*
X79499Y-72527D01*
X79499Y-72499D01*
X79528Y-72441D01*
X79585Y-72413D01*
X79671Y-72413D01*
X79728Y-72441D01*
X80100Y-72813D02*
X80042Y-72784D01*
X80014Y-72756D01*
X79985Y-72699D01*
X79985Y-72527D01*
X80014Y-72470D01*
X80042Y-72441D01*
X80100Y-72413D01*
X80185Y-72413D01*
X80242Y-72441D01*
X80271Y-72470D01*
X80300Y-72527D01*
X80300Y-72699D01*
X80271Y-72756D01*
X80242Y-72784D01*
X80185Y-72813D01*
X80100Y-72813D01*
X80557Y-72813D02*
X80557Y-72413D01*
X80557Y-72527D02*
X80585Y-72470D01*
X80614Y-72441D01*
X80671Y-72413D01*
X80728Y-72413D01*
X80928Y-72584D02*
X81385Y-72584D01*
X81671Y-72813D02*
X81671Y-72213D01*
X81928Y-72270D02*
X81957Y-72241D01*
X82014Y-72213D01*
X82157Y-72213D01*
X82214Y-72241D01*
X82243Y-72270D01*
X82271Y-72327D01*
X82271Y-72384D01*
X82243Y-72470D01*
X81900Y-72813D01*
X82271Y-72813D01*
X82871Y-72756D02*
X82842Y-72784D01*
X82756Y-72813D01*
X82699Y-72813D01*
X82614Y-72784D01*
X82556Y-72727D01*
X82528Y-72670D01*
X82499Y-72556D01*
X82499Y-72470D01*
X82528Y-72356D01*
X82556Y-72299D01*
X82614Y-72241D01*
X82699Y-72213D01*
X82756Y-72213D01*
X82842Y-72241D01*
X82871Y-72270D01*
X83128Y-72584D02*
X83585Y-72584D01*
X83871Y-72813D02*
X83871Y-72213D01*
X83871Y-72441D02*
X83928Y-72413D01*
X84042Y-72413D01*
X84099Y-72441D01*
X84128Y-72470D01*
X84157Y-72527D01*
X84157Y-72699D01*
X84128Y-72756D01*
X84099Y-72784D01*
X84042Y-72813D01*
X83928Y-72813D01*
X83871Y-72784D01*
X84414Y-72813D02*
X84414Y-72413D01*
X84414Y-72527D02*
X84442Y-72470D01*
X84471Y-72441D01*
X84528Y-72413D01*
X84585Y-72413D01*
X85013Y-72784D02*
X84956Y-72813D01*
X84842Y-72813D01*
X84785Y-72784D01*
X84756Y-72727D01*
X84756Y-72499D01*
X84785Y-72441D01*
X84842Y-72413D01*
X84956Y-72413D01*
X85013Y-72441D01*
X85042Y-72499D01*
X85042Y-72556D01*
X84756Y-72613D01*
X85556Y-72813D02*
X85556Y-72499D01*
X85527Y-72441D01*
X85470Y-72413D01*
X85356Y-72413D01*
X85299Y-72441D01*
X85556Y-72784D02*
X85499Y-72813D01*
X85356Y-72813D01*
X85299Y-72784D01*
X85270Y-72727D01*
X85270Y-72670D01*
X85299Y-72613D01*
X85356Y-72584D01*
X85499Y-72584D01*
X85556Y-72556D01*
X85842Y-72813D02*
X85842Y-72213D01*
X85899Y-72584D02*
X86070Y-72813D01*
X86070Y-72413D02*
X85842Y-72641D01*
X86414Y-72813D02*
X86356Y-72784D01*
X86328Y-72756D01*
X86299Y-72699D01*
X86299Y-72527D01*
X86328Y-72470D01*
X86356Y-72441D01*
X86414Y-72413D01*
X86499Y-72413D01*
X86556Y-72441D01*
X86585Y-72470D01*
X86614Y-72527D01*
X86614Y-72699D01*
X86585Y-72756D01*
X86556Y-72784D01*
X86499Y-72813D01*
X86414Y-72813D01*
X87128Y-72413D02*
X87128Y-72813D01*
X86871Y-72413D02*
X86871Y-72727D01*
X86899Y-72784D01*
X86957Y-72813D01*
X87042Y-72813D01*
X87099Y-72784D01*
X87128Y-72756D01*
X87328Y-72413D02*
X87557Y-72413D01*
X87414Y-72213D02*
X87414Y-72727D01*
X87442Y-72784D01*
X87500Y-72813D01*
X87557Y-72813D01*
X87757Y-72756D02*
X87785Y-72784D01*
X87757Y-72813D01*
X87728Y-72784D01*
X87757Y-72756D01*
X87757Y-72813D01*
X88043Y-72813D02*
X88043Y-72213D01*
X88043Y-72441D02*
X88100Y-72413D01*
X88214Y-72413D01*
X88271Y-72441D01*
X88300Y-72470D01*
X88329Y-72527D01*
X88329Y-72699D01*
X88300Y-72756D01*
X88271Y-72784D01*
X88214Y-72813D01*
X88100Y-72813D01*
X88043Y-72784D01*
X88586Y-72813D02*
X88586Y-72413D01*
X88586Y-72527D02*
X88614Y-72470D01*
X88643Y-72441D01*
X88700Y-72413D01*
X88757Y-72413D01*
X89214Y-72813D02*
X89214Y-72213D01*
X89214Y-72784D02*
X89157Y-72813D01*
X89043Y-72813D01*
X88985Y-72784D01*
X88957Y-72756D01*
X88928Y-72699D01*
X88928Y-72527D01*
X88957Y-72470D01*
X88985Y-72441D01*
X89043Y-72413D01*
X89157Y-72413D01*
X89214Y-72441D01*
X71014Y-73984D02*
X71100Y-74013D01*
X71243Y-74013D01*
X71300Y-73984D01*
X71329Y-73956D01*
X71357Y-73899D01*
X71357Y-73841D01*
X71329Y-73784D01*
X71300Y-73756D01*
X71243Y-73727D01*
X71129Y-73699D01*
X71071Y-73670D01*
X71043Y-73641D01*
X71014Y-73584D01*
X71014Y-73527D01*
X71043Y-73470D01*
X71071Y-73441D01*
X71129Y-73413D01*
X71271Y-73413D01*
X71357Y-73441D01*
X71614Y-74013D02*
X71614Y-73413D01*
X71871Y-74013D02*
X71871Y-73699D01*
X71842Y-73641D01*
X71785Y-73613D01*
X71700Y-73613D01*
X71642Y-73641D01*
X71614Y-73670D01*
X72385Y-73984D02*
X72328Y-74013D01*
X72214Y-74013D01*
X72157Y-73984D01*
X72128Y-73927D01*
X72128Y-73699D01*
X72157Y-73641D01*
X72214Y-73613D01*
X72328Y-73613D01*
X72385Y-73641D01*
X72414Y-73699D01*
X72414Y-73756D01*
X72128Y-73813D01*
X72899Y-73984D02*
X72842Y-74013D01*
X72728Y-74013D01*
X72671Y-73984D01*
X72642Y-73927D01*
X72642Y-73699D01*
X72671Y-73641D01*
X72728Y-73613D01*
X72842Y-73613D01*
X72899Y-73641D01*
X72928Y-73699D01*
X72928Y-73756D01*
X72642Y-73813D01*
X73099Y-73613D02*
X73328Y-73613D01*
X73185Y-73413D02*
X73185Y-73927D01*
X73213Y-73984D01*
X73271Y-74013D01*
X73328Y-74013D01*
X73528Y-73956D02*
X73556Y-73984D01*
X73528Y-74013D01*
X73499Y-73984D01*
X73528Y-73956D01*
X73528Y-74013D01*
X73528Y-73641D02*
X73556Y-73670D01*
X73528Y-73699D01*
X73499Y-73670D01*
X73528Y-73641D01*
X73528Y-73699D01*
X74585Y-74013D02*
X74242Y-74013D01*
X74414Y-74013D02*
X74414Y-73413D01*
X74357Y-73499D01*
X74299Y-73556D01*
X74242Y-73584D01*
X75270Y-73384D02*
X74756Y-74156D01*
X75785Y-74013D02*
X75442Y-74013D01*
X75614Y-74013D02*
X75614Y-73413D01*
X75557Y-73499D01*
X75499Y-73556D01*
X75442Y-73584D01*
X70300Y-71970D02*
X70300Y-77970D01*
X70300Y-71970D02*
X112300Y-71970D01*
X70300Y-71970D02*
X112300Y-71970D01*
X70300Y-74370D02*
X112300Y-74370D01*
X103500Y-75570D02*
X103500Y-77970D01*
X70300Y-76770D02*
X112300Y-76770D01*
X70300Y-75570D02*
X112300Y-75570D01*
X76900Y-75570D02*
X76900Y-76770D01*
G54D12*
X30400Y-09350D02*
X18600Y-09350D01*
X30400Y-18950D02*
X30400Y-09350D01*
X18600Y-19000D02*
X30400Y-19000D01*
X18600Y-09350D02*
X18600Y-19000D01*
G54D13*
X20400Y-12900D02*
X20399Y-12909D01*
X20396Y-12919D01*
X20391Y-12927D01*
X20385Y-12935D01*
X20377Y-12941D01*
X20369Y-12946D01*
X20360Y-12948D01*
X20350Y-12949D01*
X20341Y-12949D01*
X20332Y-12946D01*
X20323Y-12941D01*
X20316Y-12935D01*
X20309Y-12928D01*
X20305Y-12919D01*
X20302Y-12910D01*
X20301Y-12900D01*
X20301Y-12891D01*
X20304Y-12882D01*
X20308Y-12873D01*
X20315Y-12866D01*
X20322Y-12859D01*
X20330Y-12855D01*
X20340Y-12852D01*
X20349Y-12851D01*
X20358Y-12851D01*
X20368Y-12854D01*
X20376Y-12858D01*
X20384Y-12864D01*
X20390Y-12872D01*
X20395Y-12880D01*
X20398Y-12889D01*
X20399Y-12899D01*
X20400Y-12900D01*
X20800Y-12900D02*
X20400Y-12900D01*
X20400Y-12900D02*
X20400Y-12300D01*
X20400Y-12300D02*
X20800Y-12300D01*
X21200Y-12300D02*
X21600Y-12300D01*
X21600Y-12300D02*
X21600Y-12900D01*
X21600Y-12900D02*
X21200Y-12900D01*
X22500Y-13950D02*
X22499Y-13959D01*
X22496Y-13969D01*
X22491Y-13977D01*
X22485Y-13985D01*
X22477Y-13991D01*
X22469Y-13996D01*
X22460Y-13998D01*
X22450Y-13999D01*
X22441Y-13999D01*
X22432Y-13996D01*
X22423Y-13991D01*
X22416Y-13985D01*
X22409Y-13978D01*
X22405Y-13969D01*
X22402Y-13960D01*
X22401Y-13950D01*
X22401Y-13941D01*
X22404Y-13932D01*
X22408Y-13923D01*
X22415Y-13916D01*
X22422Y-13909D01*
X22430Y-13905D01*
X22440Y-13902D01*
X22449Y-13901D01*
X22458Y-13901D01*
X22468Y-13904D01*
X22476Y-13908D01*
X22484Y-13914D01*
X22490Y-13922D01*
X22495Y-13930D01*
X22498Y-13939D01*
X22499Y-13949D01*
X22500Y-13950D01*
X22000Y-13950D02*
X22400Y-13950D01*
X22400Y-13950D02*
X22400Y-14550D01*
X22400Y-14550D02*
X22000Y-14550D01*
X21600Y-14550D02*
X21200Y-14550D01*
X21200Y-14550D02*
X21200Y-13950D01*
X21200Y-13950D02*
X21600Y-13950D01*
X20400Y-15350D02*
X20399Y-15359D01*
X20396Y-15369D01*
X20391Y-15377D01*
X20385Y-15385D01*
X20377Y-15391D01*
X20369Y-15396D01*
X20360Y-15398D01*
X20350Y-15399D01*
X20341Y-15399D01*
X20332Y-15396D01*
X20323Y-15391D01*
X20316Y-15385D01*
X20309Y-15378D01*
X20305Y-15369D01*
X20302Y-15360D01*
X20301Y-15350D01*
X20301Y-15341D01*
X20304Y-15332D01*
X20308Y-15323D01*
X20315Y-15316D01*
X20322Y-15309D01*
X20330Y-15305D01*
X20340Y-15302D01*
X20349Y-15301D01*
X20358Y-15301D01*
X20368Y-15304D01*
X20376Y-15308D01*
X20384Y-15314D01*
X20390Y-15322D01*
X20395Y-15330D01*
X20398Y-15339D01*
X20399Y-15349D01*
X20400Y-15350D01*
X20800Y-15350D02*
X20400Y-15350D01*
X20400Y-15350D02*
X20400Y-14750D01*
X20400Y-14750D02*
X20800Y-14750D01*
X21200Y-14750D02*
X21600Y-14750D01*
X21600Y-14750D02*
X21600Y-15350D01*
X21600Y-15350D02*
X21200Y-15350D01*
X20400Y-13750D02*
X20399Y-13759D01*
X20396Y-13769D01*
X20391Y-13777D01*
X20385Y-13785D01*
X20377Y-13791D01*
X20369Y-13796D01*
X20360Y-13798D01*
X20350Y-13799D01*
X20341Y-13799D01*
X20332Y-13796D01*
X20323Y-13791D01*
X20316Y-13785D01*
X20309Y-13778D01*
X20305Y-13769D01*
X20302Y-13760D01*
X20301Y-13750D01*
X20301Y-13741D01*
X20304Y-13732D01*
X20308Y-13723D01*
X20315Y-13716D01*
X20322Y-13709D01*
X20330Y-13705D01*
X20340Y-13702D01*
X20349Y-13701D01*
X20358Y-13701D01*
X20368Y-13704D01*
X20376Y-13708D01*
X20384Y-13714D01*
X20390Y-13722D01*
X20395Y-13730D01*
X20398Y-13739D01*
X20399Y-13749D01*
X20400Y-13750D01*
X20800Y-13750D02*
X20400Y-13750D01*
X20400Y-13750D02*
X20400Y-13150D01*
X20400Y-13150D02*
X20800Y-13150D01*
X21200Y-13150D02*
X21600Y-13150D01*
X21600Y-13150D02*
X21600Y-13750D01*
X21600Y-13750D02*
X21200Y-13750D01*
X23250Y-14750D02*
X23249Y-14759D01*
X23246Y-14769D01*
X23241Y-14777D01*
X23235Y-14785D01*
X23227Y-14791D01*
X23219Y-14796D01*
X23210Y-14798D01*
X23200Y-14799D01*
X23191Y-14799D01*
X23182Y-14796D01*
X23173Y-14791D01*
X23166Y-14785D01*
X23159Y-14778D01*
X23155Y-14769D01*
X23152Y-14760D01*
X23151Y-14750D01*
X23151Y-14741D01*
X23154Y-14732D01*
X23158Y-14723D01*
X23165Y-14716D01*
X23172Y-14709D01*
X23180Y-14705D01*
X23190Y-14702D01*
X23199Y-14701D01*
X23208Y-14701D01*
X23218Y-14704D01*
X23226Y-14708D01*
X23234Y-14714D01*
X23240Y-14722D01*
X23245Y-14730D01*
X23248Y-14739D01*
X23249Y-14749D01*
X23250Y-14750D01*
X22750Y-14750D02*
X23150Y-14750D01*
X23150Y-14750D02*
X23150Y-15350D01*
X23150Y-15350D02*
X22750Y-15350D01*
X22350Y-15350D02*
X21950Y-15350D01*
X21950Y-15350D02*
X21950Y-14750D01*
X21950Y-14750D02*
X22350Y-14750D01*
G54D11*
X27050Y-16050D02*
X27050Y-16050D01*
X28050Y-16050D02*
X27050Y-16050D01*
X27050Y-16050D02*
X27050Y-16050D01*
X27050Y-16050D02*
X27050Y-12050D01*
X27050Y-12050D02*
X28050Y-12050D01*
X28050Y-12050D02*
X28050Y-16050D01*
X28050Y-15050D02*
X27050Y-15050D01*
X25450Y-16050D02*
X25450Y-16050D01*
X26450Y-16050D02*
X25450Y-16050D01*
X25450Y-16050D02*
X25450Y-16050D01*
X25450Y-16050D02*
X25450Y-12050D01*
X25450Y-12050D02*
X26450Y-12050D01*
X26450Y-12050D02*
X26450Y-16050D01*
X26450Y-15050D02*
X25450Y-15050D01*
G54D14*
X16177Y-11774D02*
X18638Y-11774D01*
X18638Y-12955D02*
X16177Y-12955D01*
X16177Y-12955D02*
X16177Y-11774D01*
G54D15*
X18638Y-10888D02*
X19245Y-10888D01*
X22755Y-10888D02*
X23362Y-10888D01*
X23362Y-10888D02*
X23362Y-15612D01*
X18638Y-15612D02*
X19245Y-15612D01*
X22755Y-15612D02*
X23362Y-15612D01*
X18638Y-10888D02*
X18638Y-15612D01*
G54D16*
X18402Y-15848D02*
X18402Y-15848D01*
G54D15*
X24040Y-13160D02*
X24040Y-13249D01*
X24040Y-14251D02*
X24040Y-14340D01*
X24040Y-14340D02*
X22860Y-14340D01*
X22860Y-13160D02*
X22860Y-13249D01*
X22860Y-14251D02*
X22860Y-14340D01*
X24040Y-13160D02*
X22860Y-13160D01*
G54D16*
X22624Y-12924D02*
X22624Y-12924D01*
G54D10*
X27305Y-15305D02*
X27305Y-15795D01*
X27795Y-15795D01*
X27795Y-15305D01*
X27305Y-15305D01*
X27795Y-14550D02*
X27790Y-14597D01*
X27776Y-14643D01*
X27754Y-14685D01*
X27723Y-14722D01*
X27687Y-14753D01*
X27644Y-14775D01*
X27599Y-14789D01*
X27551Y-14794D01*
X27505Y-14790D01*
X27459Y-14777D01*
X27416Y-14755D01*
X27379Y-14725D01*
X27348Y-14688D01*
X27325Y-14646D01*
X27311Y-14600D01*
X27306Y-14553D01*
X27310Y-14506D01*
X27323Y-14460D01*
X27345Y-14418D01*
X27374Y-14380D01*
X27411Y-14349D01*
X27452Y-14326D01*
X27498Y-14311D01*
X27545Y-14306D01*
X27592Y-14309D01*
X27638Y-14322D01*
X27681Y-14344D01*
X27718Y-14373D01*
X27750Y-14409D01*
X27773Y-14451D01*
X27788Y-14496D01*
X27794Y-14544D01*
X27795Y-14550D01*
X27795Y-13550D02*
X27790Y-13597D01*
X27776Y-13643D01*
X27754Y-13685D01*
X27723Y-13722D01*
X27687Y-13753D01*
X27644Y-13775D01*
X27599Y-13789D01*
X27551Y-13794D01*
X27505Y-13790D01*
X27459Y-13777D01*
X27416Y-13755D01*
X27379Y-13725D01*
X27348Y-13688D01*
X27325Y-13646D01*
X27311Y-13600D01*
X27306Y-13553D01*
X27310Y-13506D01*
X27323Y-13460D01*
X27345Y-13418D01*
X27374Y-13380D01*
X27411Y-13349D01*
X27452Y-13326D01*
X27498Y-13311D01*
X27545Y-13306D01*
X27592Y-13309D01*
X27638Y-13322D01*
X27681Y-13344D01*
X27718Y-13373D01*
X27750Y-13409D01*
X27773Y-13451D01*
X27788Y-13496D01*
X27794Y-13544D01*
X27795Y-13550D01*
X27795Y-12550D02*
X27790Y-12597D01*
X27776Y-12643D01*
X27754Y-12685D01*
X27723Y-12722D01*
X27687Y-12753D01*
X27644Y-12775D01*
X27599Y-12789D01*
X27551Y-12794D01*
X27505Y-12790D01*
X27459Y-12777D01*
X27416Y-12755D01*
X27379Y-12725D01*
X27348Y-12688D01*
X27325Y-12646D01*
X27311Y-12600D01*
X27306Y-12553D01*
X27310Y-12506D01*
X27323Y-12460D01*
X27345Y-12418D01*
X27374Y-12380D01*
X27411Y-12349D01*
X27452Y-12326D01*
X27498Y-12311D01*
X27545Y-12306D01*
X27592Y-12309D01*
X27638Y-12322D01*
X27681Y-12344D01*
X27718Y-12373D01*
X27750Y-12409D01*
X27773Y-12451D01*
X27788Y-12496D01*
X27794Y-12544D01*
X27795Y-12550D01*
X25705Y-15305D02*
X25705Y-15795D01*
X26195Y-15795D01*
X26195Y-15305D01*
X25705Y-15305D01*
X26195Y-14550D02*
X26190Y-14597D01*
X26176Y-14643D01*
X26154Y-14685D01*
X26123Y-14722D01*
X26087Y-14753D01*
X26044Y-14775D01*
X25999Y-14789D01*
X25951Y-14794D01*
X25905Y-14790D01*
X25859Y-14777D01*
X25816Y-14755D01*
X25779Y-14725D01*
X25748Y-14688D01*
X25725Y-14646D01*
X25711Y-14600D01*
X25706Y-14553D01*
X25710Y-14506D01*
X25723Y-14460D01*
X25745Y-14418D01*
X25774Y-14380D01*
X25811Y-14349D01*
X25852Y-14326D01*
X25898Y-14311D01*
X25945Y-14306D01*
X25992Y-14309D01*
X26038Y-14322D01*
X26081Y-14344D01*
X26118Y-14373D01*
X26150Y-14409D01*
X26173Y-14451D01*
X26188Y-14496D01*
X26194Y-14544D01*
X26195Y-14550D01*
X26195Y-13550D02*
X26190Y-13597D01*
X26176Y-13643D01*
X26154Y-13685D01*
X26123Y-13722D01*
X26087Y-13753D01*
X26044Y-13775D01*
X25999Y-13789D01*
X25951Y-13794D01*
X25905Y-13790D01*
X25859Y-13777D01*
X25816Y-13755D01*
X25779Y-13725D01*
X25748Y-13688D01*
X25725Y-13646D01*
X25711Y-13600D01*
X25706Y-13553D01*
X25710Y-13506D01*
X25723Y-13460D01*
X25745Y-13418D01*
X25774Y-13380D01*
X25811Y-13349D01*
X25852Y-13326D01*
X25898Y-13311D01*
X25945Y-13306D01*
X25992Y-13309D01*
X26038Y-13322D01*
X26081Y-13344D01*
X26118Y-13373D01*
X26150Y-13409D01*
X26173Y-13451D01*
X26188Y-13496D01*
X26194Y-13544D01*
X26195Y-13550D01*
X26195Y-12550D02*
X26190Y-12597D01*
X26176Y-12643D01*
X26154Y-12685D01*
X26123Y-12722D01*
X26087Y-12753D01*
X26044Y-12775D01*
X25999Y-12789D01*
X25951Y-12794D01*
X25905Y-12790D01*
X25859Y-12777D01*
X25816Y-12755D01*
X25779Y-12725D01*
X25748Y-12688D01*
X25725Y-12646D01*
X25711Y-12600D01*
X25706Y-12553D01*
X25710Y-12506D01*
X25723Y-12460D01*
X25745Y-12418D01*
X25774Y-12380D01*
X25811Y-12349D01*
X25852Y-12326D01*
X25898Y-12311D01*
X25945Y-12306D01*
X25992Y-12309D01*
X26038Y-12322D01*
X26081Y-12344D01*
X26118Y-12373D01*
X26150Y-12409D01*
X26173Y-12451D01*
X26188Y-12496D01*
X26194Y-12544D01*
X26195Y-12550D01*
G54D13*
X20958Y-12677D02*
X20946Y-12689D01*
X20911Y-12701D01*
X20887Y-12701D01*
X20851Y-12689D01*
X20827Y-12665D01*
X20816Y-12642D01*
X20804Y-12594D01*
X20804Y-12558D01*
X20816Y-12511D01*
X20827Y-12487D01*
X20851Y-12463D01*
X20887Y-12451D01*
X20911Y-12451D01*
X20946Y-12463D01*
X20958Y-12475D01*
X21173Y-12535D02*
X21173Y-12701D01*
X21113Y-12439D02*
X21054Y-12618D01*
X21208Y-12618D01*
X21758Y-14327D02*
X21746Y-14339D01*
X21711Y-14351D01*
X21687Y-14351D01*
X21651Y-14339D01*
X21627Y-14315D01*
X21616Y-14292D01*
X21604Y-14244D01*
X21604Y-14208D01*
X21616Y-14161D01*
X21627Y-14137D01*
X21651Y-14113D01*
X21687Y-14101D01*
X21711Y-14101D01*
X21746Y-14113D01*
X21758Y-14125D01*
X21842Y-14101D02*
X21996Y-14101D01*
X21913Y-14196D01*
X21949Y-14196D01*
X21973Y-14208D01*
X21985Y-14220D01*
X21996Y-14244D01*
X21996Y-14304D01*
X21985Y-14327D01*
X21973Y-14339D01*
X21949Y-14351D01*
X21877Y-14351D01*
X21854Y-14339D01*
X21842Y-14327D01*
X20958Y-15127D02*
X20946Y-15139D01*
X20911Y-15151D01*
X20887Y-15151D01*
X20851Y-15139D01*
X20827Y-15115D01*
X20816Y-15092D01*
X20804Y-15044D01*
X20804Y-15008D01*
X20816Y-14961D01*
X20827Y-14937D01*
X20851Y-14913D01*
X20887Y-14901D01*
X20911Y-14901D01*
X20946Y-14913D01*
X20958Y-14925D01*
X21196Y-15151D02*
X21054Y-15151D01*
X21125Y-15151D02*
X21125Y-14901D01*
X21101Y-14937D01*
X21077Y-14961D01*
X21054Y-14973D01*
X20958Y-13527D02*
X20946Y-13539D01*
X20911Y-13551D01*
X20887Y-13551D01*
X20851Y-13539D01*
X20827Y-13515D01*
X20816Y-13492D01*
X20804Y-13444D01*
X20804Y-13408D01*
X20816Y-13361D01*
X20827Y-13337D01*
X20851Y-13313D01*
X20887Y-13301D01*
X20911Y-13301D01*
X20946Y-13313D01*
X20958Y-13325D01*
X21054Y-13325D02*
X21066Y-13313D01*
X21089Y-13301D01*
X21149Y-13301D01*
X21173Y-13313D01*
X21185Y-13325D01*
X21196Y-13349D01*
X21196Y-13373D01*
X21185Y-13408D01*
X21042Y-13551D01*
X21196Y-13551D01*
X22508Y-15151D02*
X22425Y-15032D01*
X22366Y-15151D02*
X22366Y-14901D01*
X22461Y-14901D01*
X22485Y-14913D01*
X22496Y-14925D01*
X22508Y-14949D01*
X22508Y-14985D01*
X22496Y-15008D01*
X22485Y-15020D01*
X22461Y-15032D01*
X22366Y-15032D01*
X22746Y-15151D02*
X22604Y-15151D01*
X22675Y-15151D02*
X22675Y-14901D01*
X22651Y-14937D01*
X22627Y-14961D01*
X22604Y-14973D01*
G54D17*
X26826Y-14366D02*
X26143Y-14366D01*
X26143Y-14203D01*
X26175Y-14162D01*
X26208Y-14142D01*
X26273Y-14122D01*
X26371Y-14122D01*
X26436Y-14142D01*
X26468Y-14162D01*
X26501Y-14203D01*
X26501Y-14366D01*
X26208Y-13958D02*
X26175Y-13938D01*
X26143Y-13897D01*
X26143Y-13795D01*
X26175Y-13755D01*
X26208Y-13734D01*
X26273Y-13714D01*
X26338Y-13714D01*
X26436Y-13734D01*
X26826Y-13979D01*
X26826Y-13714D01*
X25226Y-14366D02*
X24543Y-14366D01*
X24543Y-14203D01*
X24575Y-14162D01*
X24608Y-14142D01*
X24673Y-14122D01*
X24771Y-14122D01*
X24836Y-14142D01*
X24868Y-14162D01*
X24901Y-14203D01*
X24901Y-14366D01*
X25226Y-13714D02*
X25226Y-13958D01*
X25226Y-13836D02*
X24543Y-13836D01*
X24641Y-13877D01*
X24706Y-13918D01*
X24738Y-13958D01*
G54D11*
X17043Y-09893D02*
X17043Y-10379D01*
X17071Y-10436D01*
X17100Y-10464D01*
X17157Y-10493D01*
X17271Y-10493D01*
X17329Y-10464D01*
X17357Y-10436D01*
X17386Y-10379D01*
X17386Y-09893D01*
X17986Y-10493D02*
X17643Y-10493D01*
X17815Y-10493D02*
X17815Y-09893D01*
X17758Y-09979D01*
X17700Y-10036D01*
X17643Y-10064D01*
X15615Y-17993D02*
X15615Y-17393D01*
X15815Y-17821D01*
X16015Y-17393D01*
X16015Y-17993D01*
X16301Y-17993D02*
X16301Y-17393D01*
X16529Y-17393D01*
X16587Y-17421D01*
X16615Y-17450D01*
X16644Y-17507D01*
X16644Y-17593D01*
X16615Y-17650D01*
X16587Y-17679D01*
X16529Y-17707D01*
X16301Y-17707D01*
X16844Y-17393D02*
X17244Y-17993D01*
X17244Y-17393D02*
X16844Y-17993D01*
X17386Y-17393D02*
X17586Y-17993D01*
X17786Y-17393D01*
X17986Y-17764D02*
X18443Y-17764D01*
X18729Y-17993D02*
X18729Y-17393D01*
X18957Y-17393D01*
X19015Y-17421D01*
X19043Y-17450D01*
X19072Y-17507D01*
X19072Y-17593D01*
X19043Y-17650D01*
X19015Y-17679D01*
X18957Y-17707D01*
X18729Y-17707D01*
X19672Y-17993D02*
X19472Y-17707D01*
X19329Y-17993D02*
X19329Y-17393D01*
X19557Y-17393D01*
X19615Y-17421D01*
X19643Y-17450D01*
X19672Y-17507D01*
X19672Y-17593D01*
X19643Y-17650D01*
X19615Y-17679D01*
X19557Y-17707D01*
X19329Y-17707D01*
X19929Y-17679D02*
X20129Y-17679D01*
X20215Y-17993D02*
X19929Y-17993D01*
X19929Y-17393D01*
X20215Y-17393D01*
X20443Y-17964D02*
X20529Y-17993D01*
X20672Y-17993D01*
X20729Y-17964D01*
X20758Y-17936D01*
X20786Y-17879D01*
X20786Y-17821D01*
X20758Y-17764D01*
X20729Y-17736D01*
X20672Y-17707D01*
X20558Y-17679D01*
X20500Y-17650D01*
X20472Y-17621D01*
X20443Y-17564D01*
X20443Y-17507D01*
X20472Y-17450D01*
X20500Y-17421D01*
X20558Y-17393D01*
X20700Y-17393D01*
X20786Y-17421D01*
X21014Y-17964D02*
X21100Y-17993D01*
X21243Y-17993D01*
X21300Y-17964D01*
X21329Y-17936D01*
X21357Y-17879D01*
X21357Y-17821D01*
X21329Y-17764D01*
X21300Y-17736D01*
X21243Y-17707D01*
X21129Y-17679D01*
X21071Y-17650D01*
X21043Y-17621D01*
X21014Y-17564D01*
X21014Y-17507D01*
X21043Y-17450D01*
X21071Y-17421D01*
X21129Y-17393D01*
X21271Y-17393D01*
X21357Y-17421D01*
X21614Y-17393D02*
X21614Y-17879D01*
X21642Y-17936D01*
X21671Y-17964D01*
X21728Y-17993D01*
X21842Y-17993D01*
X21900Y-17964D01*
X21928Y-17936D01*
X21957Y-17879D01*
X21957Y-17393D01*
X22586Y-17993D02*
X22386Y-17707D01*
X22243Y-17993D02*
X22243Y-17393D01*
X22471Y-17393D01*
X22529Y-17421D01*
X22557Y-17450D01*
X22586Y-17507D01*
X22586Y-17593D01*
X22557Y-17650D01*
X22529Y-17679D01*
X22471Y-17707D01*
X22243Y-17707D01*
X22843Y-17679D02*
X23043Y-17679D01*
X23129Y-17993D02*
X22843Y-17993D01*
X22843Y-17393D01*
X23129Y-17393D01*
X23386Y-17764D02*
X23843Y-17764D01*
X24100Y-17964D02*
X24186Y-17993D01*
X24329Y-17993D01*
X24386Y-17964D01*
X24415Y-17936D01*
X24443Y-17879D01*
X24443Y-17821D01*
X24415Y-17764D01*
X24386Y-17736D01*
X24329Y-17707D01*
X24215Y-17679D01*
X24157Y-17650D01*
X24129Y-17621D01*
X24100Y-17564D01*
X24100Y-17507D01*
X24129Y-17450D01*
X24157Y-17421D01*
X24215Y-17393D01*
X24357Y-17393D01*
X24443Y-17421D01*
X24700Y-17679D02*
X24900Y-17679D01*
X24986Y-17993D02*
X24700Y-17993D01*
X24700Y-17393D01*
X24986Y-17393D01*
X25243Y-17993D02*
X25243Y-17393D01*
X25586Y-17993D01*
X25586Y-17393D01*
X25843Y-17964D02*
X25929Y-17993D01*
X26072Y-17993D01*
X26129Y-17964D01*
X26158Y-17936D01*
X26186Y-17879D01*
X26186Y-17821D01*
X26158Y-17764D01*
X26129Y-17736D01*
X26072Y-17707D01*
X25958Y-17679D01*
X25900Y-17650D01*
X25872Y-17621D01*
X25843Y-17564D01*
X25843Y-17507D01*
X25872Y-17450D01*
X25900Y-17421D01*
X25958Y-17393D01*
X26100Y-17393D01*
X26186Y-17421D01*
X26557Y-17393D02*
X26671Y-17393D01*
X26729Y-17421D01*
X26786Y-17479D01*
X26814Y-17593D01*
X26814Y-17793D01*
X26786Y-17907D01*
X26729Y-17964D01*
X26671Y-17993D01*
X26557Y-17993D01*
X26500Y-17964D01*
X26443Y-17907D01*
X26414Y-17793D01*
X26414Y-17593D01*
X26443Y-17479D01*
X26500Y-17421D01*
X26557Y-17393D01*
X27415Y-17993D02*
X27215Y-17707D01*
X27072Y-17993D02*
X27072Y-17393D01*
X27300Y-17393D01*
X27358Y-17421D01*
X27386Y-17450D01*
X27415Y-17507D01*
X27415Y-17593D01*
X27386Y-17650D01*
X27358Y-17679D01*
X27300Y-17707D01*
X27072Y-17707D01*
X24593Y-13207D02*
X25079Y-13207D01*
X25136Y-13179D01*
X25164Y-13150D01*
X25193Y-13093D01*
X25193Y-12979D01*
X25164Y-12921D01*
X25136Y-12893D01*
X25079Y-12864D01*
X24593Y-12864D01*
X24650Y-12607D02*
X24621Y-12578D01*
X24593Y-12521D01*
X24593Y-12378D01*
X24621Y-12321D01*
X24650Y-12292D01*
X24707Y-12264D01*
X24764Y-12264D01*
X24850Y-12292D01*
X25193Y-12635D01*
X25193Y-12264D01*
X22693Y-15234D02*
X22693Y-15520D01*
X22093Y-15520D01*
X22093Y-15120D02*
X22093Y-14777D01*
X22693Y-14948D02*
X22093Y-14948D01*
X22636Y-14234D02*
X22664Y-14263D01*
X22693Y-14349D01*
X22693Y-14406D01*
X22664Y-14491D01*
X22607Y-14549D01*
X22550Y-14577D01*
X22436Y-14606D01*
X22350Y-14606D01*
X22236Y-14577D01*
X22179Y-14549D01*
X22121Y-14491D01*
X22093Y-14406D01*
X22093Y-14349D01*
X22121Y-14263D01*
X22150Y-14234D01*
X22150Y-14006D02*
X22121Y-13977D01*
X22093Y-13920D01*
X22093Y-13777D01*
X22121Y-13720D01*
X22150Y-13691D01*
X22207Y-13663D01*
X22264Y-13663D01*
X22350Y-13691D01*
X22693Y-14034D01*
X22693Y-13663D01*
X22293Y-13149D02*
X22693Y-13149D01*
X22064Y-13292D02*
X22493Y-13435D01*
X22493Y-13063D01*
X22350Y-12749D02*
X22321Y-12807D01*
X22293Y-12835D01*
X22236Y-12864D01*
X22207Y-12864D01*
X22150Y-12835D01*
X22121Y-12807D01*
X22093Y-12749D01*
X22093Y-12635D01*
X22121Y-12578D01*
X22150Y-12549D01*
X22207Y-12521D01*
X22236Y-12521D01*
X22293Y-12549D01*
X22321Y-12578D01*
X22350Y-12635D01*
X22350Y-12749D01*
X22379Y-12807D01*
X22407Y-12835D01*
X22464Y-12864D01*
X22579Y-12864D01*
X22636Y-12835D01*
X22664Y-12807D01*
X22693Y-12749D01*
X22693Y-12635D01*
X22664Y-12578D01*
X22636Y-12549D01*
X22579Y-12521D01*
X22464Y-12521D01*
X22407Y-12549D01*
X22379Y-12578D01*
X22350Y-12635D01*
X22093Y-12321D02*
X22093Y-11950D01*
X22321Y-12150D01*
X22321Y-12064D01*
X22350Y-12007D01*
X22379Y-11978D01*
X22436Y-11950D01*
X22579Y-11950D01*
X22636Y-11978D01*
X22664Y-12007D01*
X22693Y-12064D01*
X22693Y-12236D01*
X22664Y-12293D01*
X22636Y-12321D01*
%LPC*%
G54D18*
X20625Y-12600D03*
X21375Y-12600D03*
X22175Y-14250D03*
X21425Y-14250D03*
X20625Y-15050D03*
X21375Y-15050D03*
X20625Y-13450D03*
X21375Y-13450D03*
X22925Y-15050D03*
X22175Y-15050D03*
G54D19*
X27550Y-15550D03*
G54D20*
X27550Y-14550D03*
X27550Y-13550D03*
X27550Y-12550D03*
G54D19*
X25950Y-15550D03*
G54D20*
X25950Y-14550D03*
X25950Y-13550D03*
X25950Y-12550D03*
G54D21*
X19501Y-16223D03*
X20501Y-16223D03*
X21499Y-16223D03*
X22499Y-16223D03*
X22499Y-10277D03*
X21499Y-10277D03*
X20501Y-10277D03*
X19501Y-10277D03*
G54D22*
X22860Y-13357D03*
X22860Y-13554D03*
X22860Y-13750D03*
X22860Y-13946D03*
X22860Y-14143D03*
X24040Y-14143D03*
X24040Y-13946D03*
X24040Y-13750D03*
X24040Y-13554D03*
X24040Y-13357D03*
G54D23*
X23450Y-13750D03*
G54D24*
X24800Y-11300D03*
X25900Y-11300D03*
G54D25*
X24800Y-18100D03*
X24750Y-15550D03*
G54D24*
X25400Y-10400D03*
X24350Y-10400D03*
M02*
